<mxfile host="app.diagrams.net" modified="2023-08-18T08:14:45.804Z" agent="Mozilla/5.0 (X11; Linux x86_64) AppleWebKit/537.36 (KHTML, like Gecko) Chrome/116.0.0.0 Safari/537.36" etag="hJqcVFtFvPYSsFT3wxD7" version="21.6.8" type="github">
  <diagram id="C5RBs43oDa-KdzZeNtuy" name="Page-1">
    <mxGraphModel dx="880" dy="459" grid="1" gridSize="10" guides="1" tooltips="1" connect="1" arrows="1" fold="1" page="1" pageScale="1" pageWidth="827" pageHeight="1169" math="0" shadow="0">
      <root>
        <mxCell id="WIyWlLk6GJQsqaUBKTNV-0" />
        <mxCell id="WIyWlLk6GJQsqaUBKTNV-1" parent="WIyWlLk6GJQsqaUBKTNV-0" />
        <mxCell id="-CCUlTapHIJHBmdMC_Ew-6" style="edgeStyle=orthogonalEdgeStyle;rounded=0;orthogonalLoop=1;jettySize=auto;html=1;entryX=0.5;entryY=0;entryDx=0;entryDy=0;" edge="1" parent="WIyWlLk6GJQsqaUBKTNV-1" source="-CCUlTapHIJHBmdMC_Ew-0" target="-CCUlTapHIJHBmdMC_Ew-1">
          <mxGeometry relative="1" as="geometry" />
        </mxCell>
        <mxCell id="-CCUlTapHIJHBmdMC_Ew-0" value="START" style="ellipse;whiteSpace=wrap;html=1;" vertex="1" parent="WIyWlLk6GJQsqaUBKTNV-1">
          <mxGeometry x="160" y="30" width="120" height="50" as="geometry" />
        </mxCell>
        <mxCell id="-CCUlTapHIJHBmdMC_Ew-7" style="edgeStyle=orthogonalEdgeStyle;rounded=0;orthogonalLoop=1;jettySize=auto;html=1;entryX=0.5;entryY=0;entryDx=0;entryDy=0;" edge="1" parent="WIyWlLk6GJQsqaUBKTNV-1" source="-CCUlTapHIJHBmdMC_Ew-1" target="-CCUlTapHIJHBmdMC_Ew-3">
          <mxGeometry relative="1" as="geometry" />
        </mxCell>
        <mxCell id="-CCUlTapHIJHBmdMC_Ew-1" value="Enter l,w,h" style="shape=parallelogram;perimeter=parallelogramPerimeter;whiteSpace=wrap;html=1;fixedSize=1;" vertex="1" parent="WIyWlLk6GJQsqaUBKTNV-1">
          <mxGeometry x="160" y="120" width="120" height="60" as="geometry" />
        </mxCell>
        <mxCell id="-CCUlTapHIJHBmdMC_Ew-8" style="edgeStyle=orthogonalEdgeStyle;rounded=0;orthogonalLoop=1;jettySize=auto;html=1;entryX=0.5;entryY=0;entryDx=0;entryDy=0;" edge="1" parent="WIyWlLk6GJQsqaUBKTNV-1" source="-CCUlTapHIJHBmdMC_Ew-3" target="-CCUlTapHIJHBmdMC_Ew-4">
          <mxGeometry relative="1" as="geometry" />
        </mxCell>
        <mxCell id="-CCUlTapHIJHBmdMC_Ew-3" value="Surface area = 2(lw +lh+wh)" style="rounded=1;whiteSpace=wrap;html=1;absoluteArcSize=1;arcSize=14;strokeWidth=2;" vertex="1" parent="WIyWlLk6GJQsqaUBKTNV-1">
          <mxGeometry x="150" y="210" width="130" height="50" as="geometry" />
        </mxCell>
        <mxCell id="-CCUlTapHIJHBmdMC_Ew-9" style="edgeStyle=orthogonalEdgeStyle;rounded=0;orthogonalLoop=1;jettySize=auto;html=1;entryX=0.567;entryY=0;entryDx=0;entryDy=0;entryPerimeter=0;" edge="1" parent="WIyWlLk6GJQsqaUBKTNV-1" source="-CCUlTapHIJHBmdMC_Ew-4" target="-CCUlTapHIJHBmdMC_Ew-5">
          <mxGeometry relative="1" as="geometry" />
        </mxCell>
        <mxCell id="-CCUlTapHIJHBmdMC_Ew-4" value="Surface area" style="shape=parallelogram;perimeter=parallelogramPerimeter;whiteSpace=wrap;html=1;fixedSize=1;" vertex="1" parent="WIyWlLk6GJQsqaUBKTNV-1">
          <mxGeometry x="150" y="310" width="120" height="60" as="geometry" />
        </mxCell>
        <mxCell id="-CCUlTapHIJHBmdMC_Ew-5" value="STOP" style="ellipse;whiteSpace=wrap;html=1;" vertex="1" parent="WIyWlLk6GJQsqaUBKTNV-1">
          <mxGeometry x="140" y="410" width="120" height="50" as="geometry" />
        </mxCell>
      </root>
    </mxGraphModel>
  </diagram>
</mxfile>
